<mxfile host="65bd71144e">
    <diagram id="9qXwalDAVlFxUm1vrcqF" name="Page-1">
        <mxGraphModel dx="3088" dy="1493" grid="1" gridSize="10" guides="1" tooltips="1" connect="1" arrows="1" fold="1" page="1" pageScale="1" pageWidth="850" pageHeight="1100" math="0" shadow="0">
            <root>
                <mxCell id="0"/>
                <mxCell id="1" parent="0"/>
                <mxCell id="4" value="" style="swimlane;startSize=0;fontColor=none;fontStyle=0" parent="1" vertex="1">
                    <mxGeometry x="-510" y="70" width="1120" height="940" as="geometry"/>
                </mxCell>
                <mxCell id="5" value="&lt;font style=&quot;font-size: 24px;&quot;&gt;Authorization&lt;/font&gt;" style="text;html=1;strokeColor=none;fillColor=none;align=left;verticalAlign=middle;whiteSpace=wrap;rounded=0;fontColor=none;" parent="4" vertex="1">
                    <mxGeometry x="20" y="10" width="110" height="30" as="geometry"/>
                </mxCell>
                <mxCell id="37" value="MC-IAM-MANAGER Resource (단건 CRUD, Yaml Import/Export)" style="swimlane;whiteSpace=wrap;html=1;fontSize=12;fillColor=#ffe6cc;strokeColor=#d79b00;" parent="4" vertex="1">
                    <mxGeometry x="20" y="60" width="1080" height="420" as="geometry"/>
                </mxCell>
                <mxCell id="50" style="edgeStyle=none;html=1;exitX=1;exitY=0.25;exitDx=0;exitDy=0;entryX=0;entryY=0.5;entryDx=0;entryDy=0;strokeWidth=2;fontSize=12;fontColor=none;fillColor=#dae8fc;strokeColor=#6c8ebf;" parent="37" source="2" target="31" edge="1">
                    <mxGeometry relative="1" as="geometry"/>
                </mxCell>
                <mxCell id="2" value="Keycloak Resource (CRUD 제공)" style="swimlane;whiteSpace=wrap;html=1;fillColor=#dae8fc;strokeColor=#6c8ebf;" parent="37" vertex="1">
                    <mxGeometry x="10" y="70" width="510" height="340" as="geometry"/>
                </mxCell>
                <mxCell id="6" value="&lt;p style=&quot;line-height: 40%; font-size: 12px;&quot;&gt;&lt;font style=&quot;font-size: 12px;&quot;&gt;example&lt;/font&gt;&lt;/p&gt;&lt;p style=&quot;line-height: 40%; font-size: 12px;&quot;&gt;&lt;span style=&quot;background-color: initial;&quot;&gt;&lt;font style=&quot;font-size: 12px;&quot;&gt;Name : mc-iam-manager:res:Activeuser:post:/api/user/active&lt;/font&gt;&lt;/span&gt;&lt;/p&gt;&lt;p style=&quot;line-height: 40%; font-size: 12px;&quot;&gt;&lt;font style=&quot;font-size: 12px;&quot;&gt;URIs :&amp;nbsp;post:/api/user/active&lt;/font&gt;&lt;/p&gt;" style="rounded=0;whiteSpace=wrap;html=1;fontSize=24;align=left;fillColor=#f5f5f5;strokeColor=#666666;fontColor=#333333;" parent="2" vertex="1">
                    <mxGeometry x="10" y="130" width="490" height="60" as="geometry"/>
                </mxCell>
                <mxCell id="7" value="Resource(Endpoint) Attr" style="swimlane;fontStyle=1;childLayout=stackLayout;horizontal=1;startSize=30;horizontalStack=0;resizeParent=1;resizeParentMax=0;resizeLast=0;collapsible=1;marginBottom=0;whiteSpace=wrap;html=1;fontSize=12;fontColor=none;" parent="2" vertex="1">
                    <mxGeometry x="10" y="30" width="490" height="90" as="geometry"/>
                </mxCell>
                <mxCell id="8" value="Name :&amp;nbsp;&lt;span style=&quot;text-align: center;&quot;&gt;&amp;lt;framework&amp;gt; : res : &amp;lt;operationId&amp;gt; : &amp;lt;methoc&amp;gt; : &amp;lt;uri&amp;gt;&lt;/span&gt;" style="text;strokeColor=none;fillColor=none;align=left;verticalAlign=middle;spacingLeft=4;spacingRight=4;overflow=hidden;points=[[0,0.5],[1,0.5]];portConstraint=eastwest;rotatable=0;whiteSpace=wrap;html=1;fontSize=12;fontColor=none;" parent="7" vertex="1">
                    <mxGeometry y="30" width="490" height="30" as="geometry"/>
                </mxCell>
                <mxCell id="9" value="&lt;div style=&quot;text-align: center;&quot;&gt;&lt;span style=&quot;background-color: initial;&quot;&gt;URIs : [uri, ...]&lt;/span&gt;&lt;/div&gt;" style="text;strokeColor=none;fillColor=none;align=left;verticalAlign=middle;spacingLeft=4;spacingRight=4;overflow=hidden;points=[[0,0.5],[1,0.5]];portConstraint=eastwest;rotatable=0;whiteSpace=wrap;html=1;fontSize=12;fontColor=none;" parent="7" vertex="1">
                    <mxGeometry y="60" width="490" height="30" as="geometry"/>
                </mxCell>
                <mxCell id="21" value="Menu(Views) Attr" style="swimlane;fontStyle=1;childLayout=stackLayout;horizontal=1;startSize=30;horizontalStack=0;resizeParent=1;resizeParentMax=0;resizeLast=0;collapsible=1;marginBottom=0;whiteSpace=wrap;html=1;fontSize=12;fontColor=none;" parent="2" vertex="1">
                    <mxGeometry x="10" y="210" width="490" height="60" as="geometry"/>
                </mxCell>
                <mxCell id="22" value="Name :&amp;nbsp;&lt;span style=&quot;text-align: center;&quot;&gt;&amp;lt;framework&amp;gt; : menu : &amp;lt;Id&amp;gt;&amp;nbsp;&lt;/span&gt;&lt;span style=&quot;border-color: var(--border-color); text-align: center;&quot;&gt;: &amp;lt;displayName&lt;/span&gt;&lt;span style=&quot;border-color: var(--border-color); text-align: center;&quot;&gt;&amp;gt;&amp;nbsp;&lt;/span&gt;&lt;span style=&quot;text-align: center;&quot;&gt;: &amp;lt;parentI&lt;/span&gt;&lt;span style=&quot;text-align: center;&quot;&gt;d&amp;gt; : &amp;lt;priority&amp;gt; : &amp;lt;isaction&amp;gt;&lt;/span&gt;" style="text;strokeColor=none;fillColor=none;align=left;verticalAlign=middle;spacingLeft=4;spacingRight=4;overflow=hidden;points=[[0,0.5],[1,0.5]];portConstraint=eastwest;rotatable=0;whiteSpace=wrap;html=1;fontSize=12;fontColor=none;" parent="21" vertex="1">
                    <mxGeometry y="30" width="490" height="30" as="geometry"/>
                </mxCell>
                <mxCell id="24" value="&lt;p style=&quot;line-height: 40%; font-size: 12px;&quot;&gt;&lt;font style=&quot;font-size: 12px;&quot;&gt;example&lt;/font&gt;&lt;/p&gt;&lt;p style=&quot;line-height: 40%; font-size: 12px;&quot;&gt;&lt;span style=&quot;background-color: initial;&quot;&gt;&lt;font style=&quot;font-size: 12px;&quot;&gt;Name : mc-iam-manager:menu:menu1:post:/api/user/active&lt;/font&gt;&lt;/span&gt;&lt;/p&gt;" style="rounded=0;whiteSpace=wrap;html=1;fontSize=24;align=left;fillColor=#f5f5f5;strokeColor=#666666;fontColor=#333333;" parent="2" vertex="1">
                    <mxGeometry x="10" y="280" width="490" height="50" as="geometry"/>
                </mxCell>
                <mxCell id="27" value="Keycloak Permission (CRD 미제공, Resource Dependent / Policy Update 제공)" style="swimlane;whiteSpace=wrap;html=1;fillColor=#dae8fc;strokeColor=#6c8ebf;" parent="37" vertex="1">
                    <mxGeometry x="560" y="70" width="510" height="290" as="geometry"/>
                </mxCell>
                <mxCell id="28" value="&lt;p style=&quot;line-height: 40%; font-size: 12px;&quot;&gt;&lt;font style=&quot;font-size: 12px;&quot;&gt;example&lt;/font&gt;&lt;/p&gt;&lt;p style=&quot;line-height: 40%; font-size: 12px;&quot;&gt;&lt;font style=&quot;font-size: 12px;&quot;&gt;Name : mc-iam-manager:Activeuser&lt;/font&gt;&lt;/p&gt;&lt;p style=&quot;line-height: 40%; font-size: 12px;&quot;&gt;&lt;font style=&quot;font-size: 12px;&quot;&gt;Description : Activeuser Permission&lt;/font&gt;&lt;/p&gt;&lt;p style=&quot;line-height: 40%; font-size: 12px;&quot;&gt;&lt;font style=&quot;font-size: 12px;&quot;&gt;Resource : mc-iam-manager:res:Activeuser:post:/api/user/active&lt;/font&gt;&lt;/p&gt;&lt;p style=&quot;line-height: 0%; font-size: 12px;&quot;&gt;&lt;font style=&quot;font-size: 12px;&quot;&gt;Policires : adminPolicy&lt;/font&gt;&lt;/p&gt;" style="rounded=0;whiteSpace=wrap;html=1;fontSize=24;align=left;fillColor=#f5f5f5;strokeColor=#666666;fontColor=#333333;" parent="27" vertex="1">
                    <mxGeometry x="10" y="190" width="490" height="90" as="geometry"/>
                </mxCell>
                <mxCell id="29" value="Attr" style="swimlane;fontStyle=1;childLayout=stackLayout;horizontal=1;startSize=30;horizontalStack=0;resizeParent=1;resizeParentMax=0;resizeLast=0;collapsible=1;marginBottom=0;whiteSpace=wrap;html=1;fontSize=12;fontColor=none;" parent="27" vertex="1">
                    <mxGeometry x="10" y="30" width="490" height="150" as="geometry"/>
                </mxCell>
                <mxCell id="30" value="Name :&amp;nbsp;&lt;span style=&quot;text-align: center;&quot;&gt;&amp;lt;framework&amp;gt; : &amp;lt;operationId&amp;gt;&lt;/span&gt;" style="text;strokeColor=none;fillColor=none;align=left;verticalAlign=middle;spacingLeft=4;spacingRight=4;overflow=hidden;points=[[0,0.5],[1,0.5]];portConstraint=eastwest;rotatable=0;whiteSpace=wrap;html=1;fontSize=12;fontColor=none;" parent="29" vertex="1">
                    <mxGeometry y="30" width="490" height="30" as="geometry"/>
                </mxCell>
                <mxCell id="35" value="&lt;div style=&quot;text-align: center;&quot;&gt;&lt;span style=&quot;background-color: initial;&quot;&gt;Description : &amp;lt;description&amp;gt;&lt;/span&gt;&lt;/div&gt;" style="text;strokeColor=none;fillColor=none;align=left;verticalAlign=middle;spacingLeft=4;spacingRight=4;overflow=hidden;points=[[0,0.5],[1,0.5]];portConstraint=eastwest;rotatable=0;whiteSpace=wrap;html=1;fontSize=12;fontColor=none;" parent="29" vertex="1">
                    <mxGeometry y="60" width="490" height="30" as="geometry"/>
                </mxCell>
                <mxCell id="31" value="&lt;div style=&quot;text-align: center;&quot;&gt;&lt;span style=&quot;background-color: initial;&quot;&gt;Resource : &amp;lt;resource&amp;gt;&lt;/span&gt;&lt;/div&gt;" style="text;strokeColor=none;fillColor=none;align=left;verticalAlign=middle;spacingLeft=4;spacingRight=4;overflow=hidden;points=[[0,0.5],[1,0.5]];portConstraint=eastwest;rotatable=0;whiteSpace=wrap;html=1;fontSize=12;fontColor=none;" parent="29" vertex="1">
                    <mxGeometry y="90" width="490" height="30" as="geometry"/>
                </mxCell>
                <mxCell id="36" value="&lt;div style=&quot;text-align: center;&quot;&gt;&lt;span style=&quot;background-color: initial;&quot;&gt;Policies: [&amp;lt;rolePolicy&amp;gt;, ...]&lt;/span&gt;&lt;/div&gt;" style="text;strokeColor=none;fillColor=none;align=left;verticalAlign=middle;spacingLeft=4;spacingRight=4;overflow=hidden;points=[[0,0.5],[1,0.5]];portConstraint=eastwest;rotatable=0;whiteSpace=wrap;html=1;fontSize=12;fontColor=none;" parent="29" vertex="1">
                    <mxGeometry y="120" width="490" height="30" as="geometry"/>
                </mxCell>
                <mxCell id="54" value="Resource Permission 1:1" style="text;html=1;strokeColor=#b85450;fillColor=#f8cecc;align=center;verticalAlign=middle;whiteSpace=wrap;rounded=0;fontSize=12;" parent="37" vertex="1">
                    <mxGeometry x="10" y="30" width="150" height="30" as="geometry"/>
                </mxCell>
                <mxCell id="115" value="" style="swimlane;startSize=0;fontColor=none;fontStyle=0" vertex="1" parent="4">
                    <mxGeometry x="20" y="500" width="810" height="400" as="geometry"/>
                </mxCell>
                <mxCell id="116" value="&lt;font style=&quot;font-size: 24px;&quot;&gt;Role&lt;/font&gt;" style="text;html=1;strokeColor=none;fillColor=none;align=left;verticalAlign=middle;whiteSpace=wrap;rounded=0;fontColor=none;" vertex="1" parent="115">
                    <mxGeometry x="20" y="10" width="224" height="30" as="geometry"/>
                </mxCell>
                <mxCell id="26" value="MC-IAM-MANAGER Role (단건 CRUD)" style="swimlane;whiteSpace=wrap;html=1;fontSize=12;fillColor=#ffe6cc;strokeColor=#d79b00;" parent="115" vertex="1">
                    <mxGeometry x="20" y="50" width="770" height="320" as="geometry"/>
                </mxCell>
                <mxCell id="52" style="edgeStyle=none;html=1;exitX=1;exitY=0.25;exitDx=0;exitDy=0;entryX=0;entryY=0.5;entryDx=0;entryDy=0;strokeWidth=2;fontSize=12;fontColor=none;fillColor=#dae8fc;strokeColor=#6c8ebf;" parent="26" source="11" target="25" edge="1">
                    <mxGeometry relative="1" as="geometry"/>
                </mxCell>
                <mxCell id="11" value="Keycloak Role (CRUD 제공)" style="swimlane;whiteSpace=wrap;html=1;fillColor=#dae8fc;strokeColor=#6c8ebf;" parent="26" vertex="1">
                    <mxGeometry x="20" y="70" width="210" height="200" as="geometry"/>
                </mxCell>
                <mxCell id="12" value="&lt;p style=&quot;line-height: 40%; font-size: 12px;&quot;&gt;&lt;font style=&quot;font-size: 12px;&quot;&gt;example&lt;/font&gt;&lt;/p&gt;&lt;p style=&quot;line-height: 40%; font-size: 12px;&quot;&gt;&lt;span style=&quot;background-color: initial;&quot;&gt;&lt;font style=&quot;font-size: 12px;&quot;&gt;Name : admin&lt;/font&gt;&lt;/span&gt;&lt;/p&gt;&lt;p style=&quot;line-height: 40%; font-size: 12px;&quot;&gt;&lt;span style=&quot;background-color: initial;&quot;&gt;URIs : this is admin&lt;/span&gt;&lt;/p&gt;" style="rounded=0;whiteSpace=wrap;html=1;fontSize=24;align=left;fillColor=#f5f5f5;strokeColor=#666666;fontColor=#333333;" parent="11" vertex="1">
                    <mxGeometry x="10" y="130" width="190" height="60" as="geometry"/>
                </mxCell>
                <mxCell id="13" value="Attr" style="swimlane;fontStyle=1;childLayout=stackLayout;horizontal=1;startSize=30;horizontalStack=0;resizeParent=1;resizeParentMax=0;resizeLast=0;collapsible=1;marginBottom=0;whiteSpace=wrap;html=1;fontSize=12;fontColor=none;" parent="11" vertex="1">
                    <mxGeometry x="10" y="30" width="190" height="90" as="geometry"/>
                </mxCell>
                <mxCell id="14" value="Name :&amp;nbsp;&lt;span style=&quot;text-align: center;&quot;&gt;&amp;lt;roleName&amp;gt;&lt;/span&gt;" style="text;strokeColor=none;fillColor=none;align=left;verticalAlign=middle;spacingLeft=4;spacingRight=4;overflow=hidden;points=[[0,0.5],[1,0.5]];portConstraint=eastwest;rotatable=0;whiteSpace=wrap;html=1;fontSize=12;fontColor=none;" parent="13" vertex="1">
                    <mxGeometry y="30" width="190" height="30" as="geometry"/>
                </mxCell>
                <mxCell id="15" value="&lt;div style=&quot;text-align: center;&quot;&gt;Description : &amp;lt;roleDescription&amp;gt;&lt;br&gt;&lt;/div&gt;" style="text;strokeColor=none;fillColor=none;align=left;verticalAlign=middle;spacingLeft=4;spacingRight=4;overflow=hidden;points=[[0,0.5],[1,0.5]];portConstraint=eastwest;rotatable=0;whiteSpace=wrap;html=1;fontSize=12;fontColor=none;" parent="13" vertex="1">
                    <mxGeometry y="60" width="190" height="30" as="geometry"/>
                </mxCell>
                <mxCell id="16" value="Keycloak Policy &lt;br&gt;(CRUD 미제공, Role Dependent)" style="swimlane;whiteSpace=wrap;html=1;fillColor=#dae8fc;strokeColor=#6c8ebf;startSize=23;" parent="26" vertex="1">
                    <mxGeometry x="250" y="70" width="210" height="240" as="geometry"/>
                </mxCell>
                <mxCell id="17" value="&lt;p style=&quot;line-height: 40%; font-size: 12px;&quot;&gt;&lt;font style=&quot;font-size: 12px;&quot;&gt;example&lt;/font&gt;&lt;/p&gt;&lt;p style=&quot;line-height: 40%; font-size: 12px;&quot;&gt;&lt;span style=&quot;background-color: initial;&quot;&gt;&lt;font style=&quot;font-size: 12px;&quot;&gt;Name : adminPolicy&lt;/font&gt;&lt;/span&gt;&lt;/p&gt;&lt;p style=&quot;line-height: 40%; font-size: 12px;&quot;&gt;&lt;span style=&quot;background-color: initial;&quot;&gt;Description : admin Role Policy&lt;/span&gt;&lt;/p&gt;&lt;p style=&quot;line-height: 40%; font-size: 12px;&quot;&gt;&lt;span style=&quot;background-color: initial;&quot;&gt;Role : admin&lt;/span&gt;&lt;/p&gt;" style="rounded=0;whiteSpace=wrap;html=1;fontSize=24;align=left;fillColor=#f5f5f5;strokeColor=#666666;fontColor=#333333;" parent="16" vertex="1">
                    <mxGeometry x="10" y="160" width="190" height="70" as="geometry"/>
                </mxCell>
                <mxCell id="18" value="Attr" style="swimlane;fontStyle=1;childLayout=stackLayout;horizontal=1;startSize=30;horizontalStack=0;resizeParent=1;resizeParentMax=0;resizeLast=0;collapsible=1;marginBottom=0;whiteSpace=wrap;html=1;fontSize=12;fontColor=none;" parent="16" vertex="1">
                    <mxGeometry x="10" y="30" width="190" height="120" as="geometry"/>
                </mxCell>
                <mxCell id="19" value="Name :&amp;nbsp;&lt;span style=&quot;text-align: center;&quot;&gt;&amp;lt;policyName&amp;gt;&lt;/span&gt;" style="text;strokeColor=none;fillColor=none;align=left;verticalAlign=middle;spacingLeft=4;spacingRight=4;overflow=hidden;points=[[0,0.5],[1,0.5]];portConstraint=eastwest;rotatable=0;whiteSpace=wrap;html=1;fontSize=12;fontColor=none;" parent="18" vertex="1">
                    <mxGeometry y="30" width="190" height="30" as="geometry"/>
                </mxCell>
                <mxCell id="20" value="&lt;div style=&quot;text-align: center;&quot;&gt;Description : &amp;lt;policyDescription&amp;gt;&lt;br&gt;&lt;/div&gt;" style="text;strokeColor=none;fillColor=none;align=left;verticalAlign=middle;spacingLeft=4;spacingRight=4;overflow=hidden;points=[[0,0.5],[1,0.5]];portConstraint=eastwest;rotatable=0;whiteSpace=wrap;html=1;fontSize=12;fontColor=none;" parent="18" vertex="1">
                    <mxGeometry y="60" width="190" height="30" as="geometry"/>
                </mxCell>
                <mxCell id="25" value="&lt;div style=&quot;text-align: center;&quot;&gt;Roles : &amp;lt;role&amp;gt;&lt;br&gt;&lt;/div&gt;" style="text;strokeColor=none;fillColor=none;align=left;verticalAlign=middle;spacingLeft=4;spacingRight=4;overflow=hidden;points=[[0,0.5],[1,0.5]];portConstraint=eastwest;rotatable=0;whiteSpace=wrap;html=1;fontSize=12;fontColor=none;" parent="18" vertex="1">
                    <mxGeometry y="90" width="190" height="30" as="geometry"/>
                </mxCell>
                <mxCell id="53" value="Role Policy 1:1" style="text;html=1;strokeColor=#b85450;fillColor=#f8cecc;align=center;verticalAlign=middle;whiteSpace=wrap;rounded=0;fontSize=12;" parent="26" vertex="1">
                    <mxGeometry x="20" y="30" width="90" height="30" as="geometry"/>
                </mxCell>
                <mxCell id="140" value="Role" style="swimlane;fontStyle=1;childLayout=stackLayout;horizontal=1;startSize=30;horizontalStack=0;resizeParent=1;resizeParentMax=0;resizeLast=0;collapsible=1;marginBottom=0;whiteSpace=wrap;html=1;fontSize=12;fontColor=none;" vertex="1" parent="26">
                    <mxGeometry x="520" y="70" width="190" height="120" as="geometry"/>
                </mxCell>
                <mxCell id="141" value="Name :&amp;nbsp;&lt;span style=&quot;text-align: center;&quot;&gt;&amp;lt;roleName&amp;gt;&lt;/span&gt;" style="text;strokeColor=none;fillColor=none;align=left;verticalAlign=middle;spacingLeft=4;spacingRight=4;overflow=hidden;points=[[0,0.5],[1,0.5]];portConstraint=eastwest;rotatable=0;whiteSpace=wrap;html=1;fontSize=12;fontColor=none;" vertex="1" parent="140">
                    <mxGeometry y="30" width="190" height="30" as="geometry"/>
                </mxCell>
                <mxCell id="142" value="&lt;div style=&quot;text-align: center;&quot;&gt;Description : &amp;lt;roleDesc&amp;gt;&lt;br&gt;&lt;/div&gt;" style="text;strokeColor=none;fillColor=none;align=left;verticalAlign=middle;spacingLeft=4;spacingRight=4;overflow=hidden;points=[[0,0.5],[1,0.5]];portConstraint=eastwest;rotatable=0;whiteSpace=wrap;html=1;fontSize=12;fontColor=none;" vertex="1" parent="140">
                    <mxGeometry y="60" width="190" height="30" as="geometry"/>
                </mxCell>
                <mxCell id="143" value="rolePolcy_Id :&amp;nbsp;&lt;span style=&quot;text-align: center;&quot;&gt;&amp;lt;nsId&amp;gt;&lt;/span&gt;" style="text;strokeColor=none;fillColor=none;align=left;verticalAlign=middle;spacingLeft=4;spacingRight=4;overflow=hidden;points=[[0,0.5],[1,0.5]];portConstraint=eastwest;rotatable=0;whiteSpace=wrap;html=1;fontSize=12;fontColor=none;" vertex="1" parent="140">
                    <mxGeometry y="90" width="190" height="30" as="geometry"/>
                </mxCell>
                <mxCell id="139" style="edgeStyle=none;html=1;exitX=1;exitY=0.25;exitDx=0;exitDy=0;entryX=0;entryY=0.5;entryDx=0;entryDy=0;fillColor=#dae8fc;strokeColor=#6c8ebf;strokeWidth=2;" edge="1" parent="26" source="16" target="143">
                    <mxGeometry relative="1" as="geometry">
                        <mxPoint x="1114" y="255" as="targetPoint"/>
                    </mxGeometry>
                </mxCell>
                <mxCell id="144" style="edgeStyle=none;html=1;exitX=1;exitY=0.25;exitDx=0;exitDy=0;entryX=0;entryY=0.5;entryDx=0;entryDy=0;fillColor=#dae8fc;strokeColor=#6c8ebf;strokeWidth=2;" edge="1" parent="4" source="16" target="36">
                    <mxGeometry relative="1" as="geometry"/>
                </mxCell>
                <mxCell id="56" value="" style="swimlane;startSize=0;fontColor=none;fontStyle=0" parent="1" vertex="1">
                    <mxGeometry x="640" y="70" width="816" height="470" as="geometry"/>
                </mxCell>
                <mxCell id="57" value="&lt;font style=&quot;font-size: 24px;&quot;&gt;Workspace Project&lt;/font&gt;" style="text;html=1;strokeColor=none;fillColor=none;align=left;verticalAlign=middle;whiteSpace=wrap;rounded=0;fontColor=none;" parent="56" vertex="1">
                    <mxGeometry x="20" y="10" width="224" height="30" as="geometry"/>
                </mxCell>
                <mxCell id="114" style="edgeStyle=none;html=1;exitX=1;exitY=0.25;exitDx=0;exitDy=0;entryX=0;entryY=0.5;entryDx=0;entryDy=0;fillColor=#dae8fc;strokeColor=#6c8ebf;" edge="1" parent="56" source="76" target="110">
                    <mxGeometry relative="1" as="geometry"/>
                </mxCell>
                <mxCell id="76" value="MC-IAM-MANAGER Workspace" style="swimlane;whiteSpace=wrap;html=1;fontSize=12;fillColor=#ffe6cc;strokeColor=#d79b00;" parent="56" vertex="1">
                    <mxGeometry x="20" y="65" width="208" height="132" as="geometry"/>
                </mxCell>
                <mxCell id="91" value="Workspace" style="swimlane;fontStyle=1;childLayout=stackLayout;horizontal=1;startSize=30;horizontalStack=0;resizeParent=1;resizeParentMax=0;resizeLast=0;collapsible=1;marginBottom=0;whiteSpace=wrap;html=1;fontSize=12;fontColor=none;" parent="76" vertex="1">
                    <mxGeometry x="10" y="32" width="190" height="90" as="geometry"/>
                </mxCell>
                <mxCell id="92" value="Name :&amp;nbsp;&lt;span style=&quot;text-align: center;&quot;&gt;&amp;lt;workspaceName&amp;gt;&lt;/span&gt;" style="text;strokeColor=none;fillColor=none;align=left;verticalAlign=middle;spacingLeft=4;spacingRight=4;overflow=hidden;points=[[0,0.5],[1,0.5]];portConstraint=eastwest;rotatable=0;whiteSpace=wrap;html=1;fontSize=12;fontColor=none;" parent="91" vertex="1">
                    <mxGeometry y="30" width="190" height="30" as="geometry"/>
                </mxCell>
                <mxCell id="93" value="&lt;div style=&quot;text-align: center;&quot;&gt;Description : &amp;lt;workspcaeDesc&amp;gt;&lt;br&gt;&lt;/div&gt;" style="text;strokeColor=none;fillColor=none;align=left;verticalAlign=middle;spacingLeft=4;spacingRight=4;overflow=hidden;points=[[0,0.5],[1,0.5]];portConstraint=eastwest;rotatable=0;whiteSpace=wrap;html=1;fontSize=12;fontColor=none;" parent="91" vertex="1">
                    <mxGeometry y="60" width="190" height="30" as="geometry"/>
                </mxCell>
                <mxCell id="113" style="edgeStyle=none;html=1;exitX=1;exitY=0.25;exitDx=0;exitDy=0;entryX=0;entryY=0.5;entryDx=0;entryDy=0;fillColor=#dae8fc;strokeColor=#6c8ebf;" edge="1" parent="56" source="94" target="111">
                    <mxGeometry relative="1" as="geometry"/>
                </mxCell>
                <mxCell id="94" value="MC-IAM-MANAGER Project" style="swimlane;whiteSpace=wrap;html=1;fontSize=12;fillColor=#ffe6cc;strokeColor=#d79b00;" parent="56" vertex="1">
                    <mxGeometry x="20" y="210" width="436" height="241" as="geometry"/>
                </mxCell>
                <mxCell id="95" value="Project" style="swimlane;fontStyle=1;childLayout=stackLayout;horizontal=1;startSize=30;horizontalStack=0;resizeParent=1;resizeParentMax=0;resizeLast=0;collapsible=1;marginBottom=0;whiteSpace=wrap;html=1;fontSize=12;fontColor=none;" parent="94" vertex="1">
                    <mxGeometry x="236" y="33" width="190" height="120" as="geometry"/>
                </mxCell>
                <mxCell id="96" value="Name :&amp;nbsp;&lt;span style=&quot;text-align: center;&quot;&gt;&amp;lt;projectName&amp;gt;&lt;/span&gt;" style="text;strokeColor=none;fillColor=none;align=left;verticalAlign=middle;spacingLeft=4;spacingRight=4;overflow=hidden;points=[[0,0.5],[1,0.5]];portConstraint=eastwest;rotatable=0;whiteSpace=wrap;html=1;fontSize=12;fontColor=none;" parent="95" vertex="1">
                    <mxGeometry y="30" width="190" height="30" as="geometry"/>
                </mxCell>
                <mxCell id="106" value="Ns_Id :&amp;nbsp;&lt;span style=&quot;text-align: center;&quot;&gt;&amp;lt;nsId&amp;gt;&lt;/span&gt;" style="text;strokeColor=none;fillColor=none;align=left;verticalAlign=middle;spacingLeft=4;spacingRight=4;overflow=hidden;points=[[0,0.5],[1,0.5]];portConstraint=eastwest;rotatable=0;whiteSpace=wrap;html=1;fontSize=12;fontColor=none;" vertex="1" parent="95">
                    <mxGeometry y="60" width="190" height="30" as="geometry"/>
                </mxCell>
                <mxCell id="97" value="&lt;div style=&quot;text-align: center;&quot;&gt;Description : &amp;lt;projectDesc&amp;gt;&lt;br&gt;&lt;/div&gt;" style="text;strokeColor=none;fillColor=none;align=left;verticalAlign=middle;spacingLeft=4;spacingRight=4;overflow=hidden;points=[[0,0.5],[1,0.5]];portConstraint=eastwest;rotatable=0;whiteSpace=wrap;html=1;fontSize=12;fontColor=none;" parent="95" vertex="1">
                    <mxGeometry y="90" width="190" height="30" as="geometry"/>
                </mxCell>
                <mxCell id="107" style="edgeStyle=none;html=1;exitX=1;exitY=0.25;exitDx=0;exitDy=0;entryX=0;entryY=0.5;entryDx=0;entryDy=0;fillColor=#dae8fc;strokeColor=#6c8ebf;" edge="1" parent="94" source="98" target="106">
                    <mxGeometry relative="1" as="geometry"/>
                </mxCell>
                <mxCell id="98" value="MC-INFRA-MANAGER NameSpace" style="swimlane;whiteSpace=wrap;html=1;fillColor=#dae8fc;strokeColor=#6c8ebf;" parent="94" vertex="1">
                    <mxGeometry x="9" y="33" width="210" height="200" as="geometry"/>
                </mxCell>
                <mxCell id="99" value="&lt;p style=&quot;line-height: 40%; font-size: 12px;&quot;&gt;&lt;font style=&quot;font-size: 12px;&quot;&gt;example&lt;/font&gt;&lt;/p&gt;&lt;p style=&quot;line-height: 40%; font-size: 12px;&quot;&gt;&lt;span style=&quot;background-color: initial;&quot;&gt;&lt;font style=&quot;font-size: 12px;&quot;&gt;Name : admin&lt;/font&gt;&lt;/span&gt;&lt;/p&gt;&lt;p style=&quot;line-height: 40%; font-size: 12px;&quot;&gt;&lt;span style=&quot;background-color: initial;&quot;&gt;Desc: this is admin&lt;/span&gt;&lt;/p&gt;" style="rounded=0;whiteSpace=wrap;html=1;fontSize=24;align=left;fillColor=#f5f5f5;strokeColor=#666666;fontColor=#333333;" parent="98" vertex="1">
                    <mxGeometry x="10" y="130" width="190" height="60" as="geometry"/>
                </mxCell>
                <mxCell id="100" value="Attr" style="swimlane;fontStyle=1;childLayout=stackLayout;horizontal=1;startSize=30;horizontalStack=0;resizeParent=1;resizeParentMax=0;resizeLast=0;collapsible=1;marginBottom=0;whiteSpace=wrap;html=1;fontSize=12;fontColor=none;" parent="98" vertex="1">
                    <mxGeometry x="10" y="30" width="190" height="90" as="geometry"/>
                </mxCell>
                <mxCell id="101" value="Name :&amp;nbsp;&lt;span style=&quot;text-align: center;&quot;&gt;&amp;lt;namespaceName&amp;gt;&lt;/span&gt;" style="text;strokeColor=none;fillColor=none;align=left;verticalAlign=middle;spacingLeft=4;spacingRight=4;overflow=hidden;points=[[0,0.5],[1,0.5]];portConstraint=eastwest;rotatable=0;whiteSpace=wrap;html=1;fontSize=12;fontColor=none;" parent="100" vertex="1">
                    <mxGeometry y="30" width="190" height="30" as="geometry"/>
                </mxCell>
                <mxCell id="102" value="&lt;div style=&quot;text-align: center;&quot;&gt;Description : &amp;lt;Description&amp;gt;&lt;br&gt;&lt;/div&gt;" style="text;strokeColor=none;fillColor=none;align=left;verticalAlign=middle;spacingLeft=4;spacingRight=4;overflow=hidden;points=[[0,0.5],[1,0.5]];portConstraint=eastwest;rotatable=0;whiteSpace=wrap;html=1;fontSize=12;fontColor=none;" parent="100" vertex="1">
                    <mxGeometry y="60" width="190" height="30" as="geometry"/>
                </mxCell>
                <mxCell id="108" value="MC-IAM-MANAGER WorkspaceProjectMapping" style="swimlane;whiteSpace=wrap;html=1;fontSize=12;fillColor=#ffe6cc;strokeColor=#d79b00;" vertex="1" parent="56">
                    <mxGeometry x="466" y="50" width="334" height="130" as="geometry"/>
                </mxCell>
                <mxCell id="109" value="Workspace" style="swimlane;fontStyle=1;childLayout=stackLayout;horizontal=1;startSize=30;horizontalStack=0;resizeParent=1;resizeParentMax=0;resizeLast=0;collapsible=1;marginBottom=0;whiteSpace=wrap;html=1;fontSize=12;fontColor=none;" vertex="1" parent="108">
                    <mxGeometry x="12" y="32" width="310" height="90" as="geometry"/>
                </mxCell>
                <mxCell id="110" value="workspace_Id :&amp;nbsp;&lt;span style=&quot;text-align: center;&quot;&gt;&amp;lt;&lt;/span&gt;workspace_Id&lt;span style=&quot;text-align: center;&quot;&gt;&amp;gt;&lt;br&gt;&lt;/span&gt;" style="text;strokeColor=none;fillColor=none;align=left;verticalAlign=middle;spacingLeft=4;spacingRight=4;overflow=hidden;points=[[0,0.5],[1,0.5]];portConstraint=eastwest;rotatable=0;whiteSpace=wrap;html=1;fontSize=12;fontColor=none;" vertex="1" parent="109">
                    <mxGeometry y="30" width="310" height="30" as="geometry"/>
                </mxCell>
                <mxCell id="111" value="&lt;div style=&quot;text-align: center;&quot;&gt;project_id : &amp;lt;project Id&amp;gt;&lt;br&gt;&lt;/div&gt;" style="text;strokeColor=none;fillColor=none;align=left;verticalAlign=middle;spacingLeft=4;spacingRight=4;overflow=hidden;points=[[0,0.5],[1,0.5]];portConstraint=eastwest;rotatable=0;whiteSpace=wrap;html=1;fontSize=12;fontColor=none;" vertex="1" parent="109">
                    <mxGeometry y="60" width="310" height="30" as="geometry"/>
                </mxCell>
                <mxCell id="145" value="" style="swimlane;startSize=0;fontColor=none;fontStyle=0" vertex="1" parent="1">
                    <mxGeometry x="640" y="710" width="284" height="300" as="geometry"/>
                </mxCell>
                <mxCell id="146" value="&lt;font style=&quot;font-size: 24px;&quot;&gt;User&lt;/font&gt;" style="text;html=1;strokeColor=none;fillColor=none;align=left;verticalAlign=middle;whiteSpace=wrap;rounded=0;fontColor=none;" vertex="1" parent="145">
                    <mxGeometry x="20" y="10" width="224" height="30" as="geometry"/>
                </mxCell>
                <mxCell id="166" value="Keycloak User (CRUD 제공)" style="swimlane;whiteSpace=wrap;html=1;fillColor=#dae8fc;strokeColor=#6c8ebf;startSize=23;" vertex="1" parent="145">
                    <mxGeometry x="34" y="60" width="210" height="230" as="geometry"/>
                </mxCell>
                <mxCell id="167" value="&lt;p style=&quot;line-height: 40%; font-size: 12px;&quot;&gt;&lt;font style=&quot;font-size: 12px;&quot;&gt;example&lt;/font&gt;&lt;/p&gt;&lt;p style=&quot;line-height: 40%; font-size: 12px;&quot;&gt;&lt;span style=&quot;background-color: initial;&quot;&gt;&lt;font style=&quot;font-size: 12px;&quot;&gt;Name : admin&lt;/font&gt;&lt;/span&gt;&lt;/p&gt;&lt;p style=&quot;line-height: 40%; font-size: 12px;&quot;&gt;&lt;span style=&quot;background-color: initial;&quot;&gt;URIs : this is admin&lt;/span&gt;&lt;/p&gt;" style="rounded=0;whiteSpace=wrap;html=1;fontSize=24;align=left;fillColor=#f5f5f5;strokeColor=#666666;fontColor=#333333;" vertex="1" parent="166">
                    <mxGeometry x="10" y="160" width="190" height="60" as="geometry"/>
                </mxCell>
                <mxCell id="168" value="Attr" style="swimlane;fontStyle=1;childLayout=stackLayout;horizontal=1;startSize=30;horizontalStack=0;resizeParent=1;resizeParentMax=0;resizeLast=0;collapsible=1;marginBottom=0;whiteSpace=wrap;html=1;fontSize=12;fontColor=none;" vertex="1" parent="166">
                    <mxGeometry x="10" y="30" width="190" height="120" as="geometry"/>
                </mxCell>
                <mxCell id="169" value="id :&amp;nbsp;&lt;span style=&quot;text-align: center;&quot;&gt;&amp;lt;userid&amp;gt;&lt;/span&gt;" style="text;strokeColor=none;fillColor=none;align=left;verticalAlign=middle;spacingLeft=4;spacingRight=4;overflow=hidden;points=[[0,0.5],[1,0.5]];portConstraint=eastwest;rotatable=0;whiteSpace=wrap;html=1;fontSize=12;fontColor=none;" vertex="1" parent="168">
                    <mxGeometry y="30" width="190" height="30" as="geometry"/>
                </mxCell>
                <mxCell id="170" value="&lt;div style=&quot;text-align: center;&quot;&gt;role : &amp;lt;role&amp;gt;&lt;br&gt;&lt;/div&gt;" style="text;strokeColor=none;fillColor=none;align=left;verticalAlign=middle;spacingLeft=4;spacingRight=4;overflow=hidden;points=[[0,0.5],[1,0.5]];portConstraint=eastwest;rotatable=0;whiteSpace=wrap;html=1;fontSize=12;fontColor=none;" vertex="1" parent="168">
                    <mxGeometry y="60" width="190" height="30" as="geometry"/>
                </mxCell>
                <mxCell id="171" value="&lt;div style=&quot;text-align: center;&quot;&gt;otherInfo : email, name&lt;br&gt;&lt;/div&gt;" style="text;strokeColor=none;fillColor=none;align=left;verticalAlign=middle;spacingLeft=4;spacingRight=4;overflow=hidden;points=[[0,0.5],[1,0.5]];portConstraint=eastwest;rotatable=0;whiteSpace=wrap;html=1;fontSize=12;fontColor=none;" vertex="1" parent="168">
                    <mxGeometry y="90" width="190" height="30" as="geometry"/>
                </mxCell>
                <mxCell id="173" style="edgeStyle=none;html=1;exitX=1;exitY=0.25;exitDx=0;exitDy=0;entryX=0;entryY=0.5;entryDx=0;entryDy=0;strokeWidth=2;fillColor=#dae8fc;strokeColor=#6c8ebf;" edge="1" parent="1" source="115" target="170">
                    <mxGeometry relative="1" as="geometry"/>
                </mxCell>
            </root>
        </mxGraphModel>
    </diagram>
</mxfile>